<svg width="14" height="13" viewBox="0 0 14 13" fill="none" xmlns="http://www.w3.org/2000/svg">
<path d="M13.174 0.000956426C13.0189 0.00790293 12.868 0.0519709 12.7319 0.107628C12.5971 0.162913 11.8214 0.500957 10.6759 1.00101C9.53045 1.50105 8.04141 2.15222 6.56535 2.79792C3.61324 4.08931 0.712274 5.35995 0.712274 5.35995L0.733418 5.35169C0.733418 5.35169 0.55833 5.41145 0.380816 5.53773C0.292058 5.60088 0.19657 5.68239 0.118385 5.80124C0.0402 5.92008 -0.0169582 6.08851 0.00458195 6.26666C0.080241 6.89238 0.715384 7.06987 0.715384 7.06987L0.717871 7.07114L3.55237 8.06166C3.62464 8.30782 4.41209 10.9913 4.58531 11.5596C4.68097 11.8738 4.77051 12.0551 4.8639 12.1787C4.91064 12.2406 4.95962 12.2884 5.01378 12.3235C5.03529 12.3374 5.05792 12.3478 5.08032 12.3571H5.08156C5.08431 12.3584 5.0869 12.3585 5.08965 12.3597L5.08218 12.3577C5.08739 12.3599 5.09252 12.3635 5.09773 12.3654C5.10783 12.369 5.11403 12.3689 5.12696 12.3717C5.45158 12.4874 5.72023 12.2727 5.72023 12.2727L5.73142 12.2638L7.47267 10.6148L10.2985 12.8644L10.3339 12.8809C10.8285 13.1052 11.2758 12.9801 11.5236 12.7743C11.7713 12.5685 11.8687 12.3031 11.8687 12.3031L11.8793 12.2752L13.9557 1.22514C14.0088 0.977929 14.0164 0.764239 13.9663 0.571143C13.9162 0.378047 13.7944 0.21019 13.6417 0.117153C13.4889 0.0241148 13.3291 -0.00599008 13.174 0.000956426ZM13.1908 0.661941C13.2538 0.658963 13.3005 0.666314 13.3152 0.675275C13.3299 0.684236 13.3365 0.683056 13.3506 0.7375C13.3647 0.791944 13.3724 0.906617 13.3338 1.08609L13.3326 1.0899L11.268 12.0758C11.2631 12.0869 11.2201 12.1885 11.1218 12.2701C11.0216 12.3534 10.9102 12.4184 10.6144 12.2917L7.52428 9.83127L7.43722 9.76143L7.43535 9.76334L6.51125 9.05536L11.7045 2.81697C11.7444 2.76916 11.7699 2.71056 11.7779 2.64828C11.7859 2.58599 11.776 2.52268 11.7495 2.46599C11.723 2.40931 11.681 2.36167 11.6285 2.32886C11.5761 2.29604 11.5154 2.27944 11.4539 2.28107C11.3938 2.28266 11.3354 2.30159 11.2854 2.33567L3.77065 7.45084L0.931796 6.45841C0.931796 6.45841 0.649899 6.29824 0.636406 6.18665C0.635658 6.18047 0.632329 6.18607 0.646978 6.16379C0.661626 6.14153 0.698447 6.10393 0.744612 6.07109C0.836941 6.00541 0.942368 5.96569 0.942368 5.96569L0.95294 5.96188L0.963512 5.95744C0.963512 5.95744 3.86462 4.68673 6.81659 3.39541C8.29257 2.74974 9.78135 2.09905 10.9266 1.59913C12.0715 1.09933 12.8987 0.739585 12.9688 0.710832C13.0485 0.678226 13.1278 0.664919 13.1908 0.661941ZM9.74686 4.16433L5.80853 8.89536L5.80667 8.89726C5.80052 8.90482 5.79471 8.91266 5.78925 8.92075C5.78301 8.92955 5.77719 8.93866 5.77184 8.94806C5.74971 8.9864 5.73553 9.02898 5.73018 9.07314C5.73017 9.07399 5.73017 9.07484 5.73018 9.07568L5.21713 11.4314C5.2086 11.4059 5.20263 11.3966 5.1935 11.3666V11.366C5.03055 10.8313 4.28761 8.30056 4.18482 7.95055L9.74686 4.16433ZM6.25317 9.67063L6.96086 10.2129L5.92109 11.1971L6.25317 9.67063Z" fill="#002004"/>
</svg>
